<svg width="87" height="30" viewBox="0 0 87 30" fill="none" xmlns="http://www.w3.org/2000/svg">
<circle cx="69" cy="15" r="15" fill="#F64136"/>
<path d="M59.12 9.34C59.1333 9.35333 58.9667 9.20667 58.62 8.9C58.38 8.68667 58.2 8.53333 58.08 8.44C58.1333 8.08 58.2667 7.82667 58.48 7.68C58.6933 7.53333 58.9733 7.42 59.32 7.34C59.68 7.24667 60.0667 7.2 60.48 7.2C60.88 7.2 61.2867 7.24 61.7 7.32C62.8867 7.53333 63.9333 7.78 64.84 8.06C65.7467 8.34 66.5933 8.73333 67.38 9.24C67.9267 9.57333 68.3867 9.96667 68.76 10.42C69.3067 11.1267 69.58 11.8467 69.58 12.58C69.58 13.2067 69.3733 13.8533 68.96 14.52C67.3867 17.0133 65.7667 18.98 64.1 20.42C63.0867 21.3133 61.9667 22.0467 60.74 22.62C60.2867 22.8467 59.8133 22.96 59.32 22.96C58.7333 22.96 58.1667 22.7933 57.62 22.46C57.42 22.3267 57.2667 22.1867 57.16 22.04C57.0533 21.9067 57 21.7467 57 21.56L57.02 21.38L57.16 20.34C57.32 19.1133 57.4667 18.2 57.6 17.6L57.7 17.16C58.1 15.4267 58.4 14.0333 58.6 12.98C58.8 11.9133 58.9467 10.82 59.04 9.7L59.12 9.34ZM61.76 9.1C61.6 9.08667 61.3867 9.1 61.12 9.14L60.68 9.2C61 9.46667 61.2333 9.7 61.38 9.9C61.5267 10.1 61.6 10.3133 61.6 10.54C61.6 10.5933 61.5867 10.6867 61.56 10.82C61.3867 11.5933 61.1533 12.5467 60.86 13.68L60.14 16.56C59.82 17.8667 59.54 19.08 59.3 20.2C59.26 20.3467 59.2333 20.5133 59.22 20.7C59.22 20.8733 59.22 21 59.22 21.08C59.34 21.1333 59.4067 21.16 59.42 21.16L59.68 21.06C61.68 20.0867 63.3867 18.7267 64.8 16.98C65.3733 16.2467 65.8533 15.5533 66.24 14.9C66.64 14.2467 66.94 13.56 67.14 12.84C67.1933 12.6667 67.22 12.46 67.22 12.22C67.22 11.8067 67.1133 11.4333 66.9 11.1C66.7 10.7667 66.42 10.5133 66.06 10.34C64.7267 9.74 63.2933 9.32667 61.76 9.1ZM77.0103 21.62C76.9436 21.7133 76.8436 21.8667 76.7103 22.08C76.577 22.3067 76.4303 22.48 76.2703 22.6C76.1103 22.7333 75.917 22.8133 75.6903 22.84C74.517 22.3333 73.877 21.4933 73.7703 20.32C73.677 19.6 73.497 18.4667 73.2303 16.92C73.0303 15.7467 72.777 14.4267 72.4703 12.96C72.4436 12.8533 72.3636 12.7267 72.2303 12.58C72.1103 12.4333 72.0303 12.3267 71.9903 12.26C71.9503 12.1933 71.877 12.0667 71.7703 11.88C71.6636 11.68 71.597 11.4933 71.5703 11.32C71.557 11.08 71.6103 10.8867 71.7303 10.74C71.8503 10.5933 72.0236 10.52 72.2503 10.52C72.3303 10.52 72.397 10.5267 72.4503 10.54C72.9703 10.66 73.397 10.8267 73.7303 11.04C74.077 11.2533 74.337 11.58 74.5103 12.02C74.777 12.7133 74.9703 13.4133 75.0903 14.12C75.2103 14.8133 75.3303 15.7333 75.4503 16.88L75.5103 17.42C75.5236 17.5 75.557 17.7333 75.6103 18.12L75.6903 18.6C76.0236 18.2933 76.3103 17.98 76.5503 17.66C76.8036 17.3267 77.0836 16.9333 77.3903 16.48L77.7503 15.96L79.5303 13.42C80.8636 11.46 81.9303 9.94 82.7303 8.86C82.8903 8.64667 83.0836 8.43333 83.3103 8.22C83.5503 8.00667 83.7836 7.8 84.0103 7.6C84.3036 7.36 84.517 7.17333 84.6503 7.04C84.837 6.85333 85.0036 6.76 85.1503 6.76C85.2436 6.76 85.337 6.80667 85.4303 6.9C85.5236 7.00667 85.6036 7.13333 85.6703 7.28C85.737 7.42667 85.7703 7.56667 85.7703 7.7C85.7703 7.94 85.637 8.24667 85.3703 8.62L84.6503 9.62C84.2636 10.1267 83.9303 10.5867 83.6503 11C83.2503 11.6133 82.9436 12.0733 82.7303 12.38C82.157 13.2467 81.6836 13.9733 81.3103 14.56C80.9503 15.1467 80.6103 15.74 80.2903 16.34C79.4503 17.9267 78.357 19.6867 77.0103 21.62Z" fill="white"/>
<path d="M9.763 6.866C9.68633 7.67867 9.648 8.53733 9.648 9.442C9.648 13.168 10.338 17.5917 11.718 22.713C11.672 22.7437 11.6107 22.7667 11.534 22.782C11.1353 22.782 10.8363 22.667 10.637 22.437C10.1157 21.333 9.54833 19.7077 8.935 17.561C7.89233 17.7297 6.91867 17.814 6.014 17.814C5.12467 17.814 4.50367 17.7987 4.151 17.768C3.43033 19.2707 2.62533 20.827 1.736 22.437C1.46 22.667 1.17633 22.782 0.885 22.782C0.593667 22.782 0.448 22.759 0.448 22.713C1.03067 21.563 1.79733 19.8533 2.748 17.584C2.564 17.5533 2.27267 17.492 1.874 17.4C1.644 17.1547 1.529 16.8173 1.529 16.388C1.529 16.2807 1.552 16.227 1.598 16.227C1.644 16.227 1.736 16.25 1.874 16.296C2.196 16.388 2.62533 16.4647 3.162 16.526C4.634 12.9227 5.65367 10.0017 6.221 7.763L8.751 6.429C9.18033 6.429 9.51767 6.57467 9.763 6.866ZM4.703 16.595C6.14433 16.5643 7.42467 16.388 8.544 16.066C7.91533 13.6893 7.51667 11.6653 7.348 9.994C6.474 12.4013 5.59233 14.6017 4.703 16.595ZM17.5589 7.372C17.2829 8.246 17.0299 9.40367 16.7999 10.845C16.5699 12.271 16.4549 13.651 16.4549 14.985C16.4549 18.8797 17.4516 20.827 19.4449 20.827C20.3496 20.827 21.0856 20.3593 21.6529 19.424C22.2203 18.4887 22.5959 17.354 22.7799 16.02C22.6419 14.686 22.5729 13.283 22.5729 11.811C22.5729 10.339 22.7186 8.66767 23.0099 6.797L23.6079 6.429L25.5629 7.372C24.8576 9.18133 24.5049 11.9643 24.5049 15.721C24.5049 18.5117 24.6199 20.8423 24.8499 22.713C24.8499 22.759 24.7886 22.782 24.6659 22.782C24.2673 22.782 23.9683 22.667 23.7689 22.437C23.4469 20.8423 23.2093 19.4777 23.0559 18.343C22.2893 21.287 20.8326 22.759 18.6859 22.759C17.8579 22.759 17.1526 22.5137 16.5699 22.023C15.9873 21.5323 15.5426 20.85 15.2359 19.976C14.6686 18.3813 14.3849 16.411 14.3849 14.065C14.3849 11.7037 14.5919 9.281 15.0059 6.797L15.6039 6.429L17.5589 7.372ZM31.9875 22.437C31.7728 22.6517 31.4431 22.759 30.9985 22.759C30.8911 22.759 30.8375 22.736 30.8375 22.69C31.1748 20.6507 31.3435 18.4733 31.3435 16.158C31.3435 13.8273 31.2515 11.627 31.0675 9.557C30.8068 9.57233 30.3391 9.58 29.6645 9.58C29.0051 9.58 28.2615 9.511 27.4335 9.373L27.0655 8.775L27.9395 6.797C28.9055 7.31833 30.2625 7.579 32.0105 7.579C33.7738 7.579 35.4835 7.372 37.1395 6.958C37.2008 6.958 37.2315 7.08833 37.2315 7.349C37.2315 7.60967 37.1165 7.83967 36.8865 8.039C35.6598 8.56033 34.4868 8.95133 33.3675 9.212C33.0915 15.5293 32.6315 19.9377 31.9875 22.437ZM46.2757 6.452L46.6667 7.027L45.9997 8.361C46.7663 9.02033 47.395 9.96333 47.8857 11.19C48.3917 12.4167 48.6447 13.6127 48.6447 14.778C48.6447 15.9433 48.522 16.9707 48.2767 17.86C48.0467 18.734 47.694 19.5543 47.2187 20.321C46.7433 21.0723 46.0763 21.6703 45.2177 22.115C44.3743 22.5597 43.393 22.782 42.2737 22.782C40.679 22.782 39.345 22.1763 38.2717 20.965C37.1983 19.7537 36.6617 18.0823 36.6617 15.951C36.6617 13.8043 37.3363 11.8493 38.6857 10.086C39.391 9.15067 40.3953 8.361 41.6987 7.717C43.002 7.05767 44.5277 6.636 46.2757 6.452ZM42.8487 20.873C44.244 20.827 45.3097 20.3057 46.0457 19.309C46.797 18.3123 47.1727 17.147 47.1727 15.813C47.1727 14.4637 46.9503 13.122 46.5057 11.788C46.061 10.454 45.44 9.38833 44.6427 8.591C42.6953 8.867 41.2463 9.59533 40.2957 10.776C39.345 11.9413 38.8697 13.4133 38.8697 15.192C38.8697 16.9553 39.253 18.343 40.0197 19.355C40.8017 20.367 41.7447 20.873 42.8487 20.873Z" fill="white"/>
</svg>
