<svg
  viewBox="0 0 480 480"
  fill="none"
  xmlns="http://www.w3.org/2000/svg"
  class="department-header-icon"
  data-v-2106117d=""
><path
    d="M90.586 436.846L90.5899 436.855C90.9363 437.683 91.4889 438.54 92.2825 439.593C92.5096 439.894 92.8011 440.266 93.1197 440.672C93.2854 440.883 93.4584 441.104 93.6334 441.329C95.4265 440.01 97.2187 438.693 99.0096 437.377C106.081 432.181 113.133 427 120.132 421.742C120.618 421.284 120.977 420.705 121.171 420.064L121.191 419.997L121.213 419.931C123.519 413.159 125.751 406.447 127.986 399.728C129.795 394.286 131.607 388.839 133.46 383.35L133.501 383.23L133.549 383.113C133.787 382.532 133.837 381.89 133.691 381.279C133.544 380.667 133.21 380.117 132.734 379.706L132.634 379.619L132.539 379.525C129.687 376.708 126.951 373.966 124.226 371.236C121.199 368.203 118.186 365.184 115.044 362.09L115.042 362.089C113.579 360.647 112.911 360.524 112.741 360.511C112.597 360.499 111.964 360.494 110.379 361.666L90.586 436.846ZM90.586 436.846L90.5822 436.837M90.586 436.846L90.5822 436.837M90.5822 436.837C89.7028 434.765 88.9714 432.587 88.2245 430.264C88.0974 429.868 87.9693 429.467 87.8398 429.061C87.2244 427.132 86.5763 425.1 85.8421 423.113L85.8035 423.009M90.5822 436.837L85.8035 423.009M85.8035 423.009L85.7593 422.907M85.8035 423.009L85.7593 422.907M85.7593 422.907C85.3576 421.982 85.2129 420.965 85.3403 419.965C85.4677 418.964 85.8625 418.016 86.4832 417.221L86.5244 417.168M85.7593 422.907L86.5244 417.168M86.5244 417.168L86.5639 417.114M86.5244 417.168L86.5639 417.114M86.5639 417.114C87.9969 415.146 89.3236 413.123 90.59 411.182C90.6609 411.073 90.7317 410.965 90.8023 410.857C92.0074 409.009 93.1603 407.242 94.3766 405.533C95.1615 404.434 95.9959 402.938 96.045 401.062C96.0952 399.14 95.3072 397.568 94.4453 396.35L94.4399 396.342M86.5639 417.114L94.4399 396.342M94.4399 396.342L94.4345 396.334M94.4399 396.342L94.4345 396.334M94.4345 396.334C91.5659 392.32 88.8505 388.16 86.1392 383.924M94.4345 396.334L86.1392 383.924M86.1392 383.924C84.9798 382.112 85.0364 381.414 85.0599 381.273M86.1392 383.924L85.0599 381.273M85.0599 381.273C85.0799 381.154 85.2274 380.516 86.8625 379.263M85.0599 381.273L86.8625 379.263M86.8625 379.263C94.6679 373.361 102.506 367.495 110.378 361.666L86.8625 379.263Z"
    stroke="#939FAA"
    stroke-width="8"
  /><path
    d="M306.079 201.281C304.777 203.066 305.167 205.568 306.952 206.871C308.736 208.173 311.238 207.783 312.541 205.998L306.079 201.281ZM310.64 197.49L314.484 196.383L314.482 196.375L310.64 197.49ZM306.11 179.73L302.251 180.782L302.252 180.785L306.11 179.73ZM309.5 170.52L311.64 173.899L311.643 173.897L309.5 170.52ZM326.13 159.52L328.303 162.878L328.306 162.876L326.13 159.52ZM336.85 162.41L340.414 160.594L340.412 160.59L336.85 162.41ZM348.07 184.88L344.486 186.655C344.531 186.746 344.579 186.835 344.631 186.923L348.07 184.88ZM349.47 188.99L353.47 188.931C353.467 188.79 353.458 188.649 353.441 188.509L349.47 188.99ZM349.4 215.33L345.402 215.198C345.402 215.203 345.402 215.208 345.402 215.214L349.4 215.33ZM346.55 220.33L343.679 217.544C343.663 217.562 343.646 217.579 343.63 217.597L346.55 220.33ZM333.87 233.04L331.12 230.136L331.118 230.137L333.87 233.04ZM333 238.17L329.466 240.045L329.472 240.054L333 238.17ZM342 255.96L338.453 257.809L338.456 257.814L342 255.96ZM340.53 264.96L343.33 267.816L343.332 267.814L340.53 264.96ZM326.93 278.45L329.323 281.655C329.452 281.559 329.575 281.455 329.692 281.344L326.93 278.45ZM325.72 283.65L329.446 282.194C329.397 282.07 329.343 281.949 329.282 281.831L325.72 283.65ZM329.61 294.95L325.836 296.275C325.848 296.309 325.86 296.343 325.873 296.377L329.61 294.95ZM328.21 303.17L325.156 300.587C325.111 300.639 325.068 300.693 325.026 300.748L328.21 303.17ZM310.69 326.44L307.517 324.004L307.513 324.01L310.69 326.44ZM299.89 327.21L297.156 330.13L297.158 330.132L299.89 327.21ZM292.67 319.54L295.691 316.918C294.345 315.367 292.043 315.088 290.365 316.271L292.67 319.54ZM290.23 321.63L287.354 318.85C287.256 318.951 287.163 319.058 287.077 319.169L290.23 321.63ZM270.23 335.04L271.495 338.835C271.584 338.805 271.672 338.772 271.759 338.736L270.23 335.04ZM262.99 335.29L263.99 331.417C263.95 331.407 263.911 331.397 263.871 331.388L262.99 335.29ZM250.4 331.29L251.642 327.488C249.762 326.873 247.714 327.726 246.826 329.494L250.4 331.29ZM241.95 348.29L238.269 346.724C238.25 346.769 238.232 346.813 238.215 346.859L241.95 348.29ZM232.16 356.69L231.313 352.781C231.254 352.793 231.195 352.808 231.137 352.823L232.16 356.69ZM218.54 361.16L219.725 364.98L219.729 364.979L218.54 361.16ZM205.15 339.92L209.073 339.14L209.072 339.135L205.15 339.92ZM200.3 336.18L199.884 340.158L199.886 340.158L200.3 336.18ZM156.3 344.18L155.249 340.321L155.246 340.321L156.3 344.18ZM141.74 348.36L142.794 352.219L142.794 352.219L141.74 348.36ZM126.58 326.93L122.804 328.25L122.805 328.254L126.58 326.93ZM129.34 318.27L127.088 314.964L127.081 314.969L129.34 318.27ZM147.72 305.58L150.079 308.81L150.081 308.809L147.72 305.58ZM179.45 296.08L180.185 300.012L180.192 300.011L179.45 296.08ZM196.174 297.263C198.357 296.923 199.852 294.879 199.513 292.696C199.173 290.513 197.129 289.018 194.946 289.357L196.174 297.263ZM312.541 205.998C313.407 204.811 314.258 203.409 314.677 201.709C315.113 199.934 315 198.175 314.484 196.383L306.796 198.597C307 199.305 306.952 199.621 306.908 199.796C306.847 200.045 306.673 200.468 306.079 201.281L312.541 205.998ZM314.482 196.375C313.659 193.541 312.948 190.652 312.229 187.681C311.516 184.735 310.793 181.691 309.968 178.675L302.252 180.785C303.037 183.659 303.729 186.565 304.453 189.562C305.172 192.533 305.921 195.579 306.798 198.604L314.482 196.375ZM309.969 178.678C309.554 177.153 309.645 176.305 309.82 175.807C309.979 175.354 310.381 174.697 311.64 173.899L307.36 167.141C305.019 168.623 303.181 170.571 302.273 173.153C301.38 175.69 301.576 178.306 302.251 180.782L309.969 178.678ZM311.643 173.897C317.117 170.424 323.053 166.274 328.303 162.878L323.957 156.162C318.047 159.985 313.103 163.496 307.357 167.143L311.643 173.897ZM328.306 162.876C330.278 161.597 331.097 161.727 331.262 161.772C331.429 161.817 332.21 162.12 333.288 164.23L340.412 160.59C338.9 157.63 336.696 154.948 333.338 154.046C329.978 153.143 326.732 154.362 323.954 156.164L328.306 162.876ZM333.286 164.226C337.073 171.661 340.781 179.176 344.486 186.655L351.654 183.105C347.959 175.644 344.227 168.079 340.414 160.594L333.286 164.226ZM344.631 186.923C345.094 187.703 345.39 188.571 345.499 189.471L353.441 188.509C353.198 186.504 352.54 184.573 351.509 182.837L344.631 186.923ZM345.47 189.049C345.6 197.828 345.689 206.533 345.402 215.198L353.398 215.462C353.691 206.587 353.6 197.712 353.47 188.931L345.47 189.049ZM345.402 215.214C345.407 215.043 345.439 215.236 345.057 215.846C344.715 216.392 344.219 216.988 343.679 217.544L349.421 223.116C350.191 222.322 351.095 221.278 351.838 220.092C352.541 218.969 353.343 217.337 353.398 215.446L345.402 215.214ZM343.63 217.597C339.604 221.898 335.412 226.071 331.12 230.136L336.62 235.944C341.008 231.789 345.316 227.502 349.47 223.063L343.63 217.597ZM331.118 230.137C329.979 231.217 328.774 232.7 328.418 234.738C328.059 236.797 328.707 238.613 329.466 240.045L336.534 236.295C336.355 235.96 336.312 235.801 336.306 235.777C336.305 235.771 336.313 235.805 336.316 235.87C336.319 235.937 336.315 236.02 336.299 236.112C336.283 236.204 336.259 236.28 336.236 236.336C336.214 236.39 336.199 236.411 336.208 236.398C336.217 236.383 336.249 236.337 336.317 236.258C336.386 236.178 336.484 236.074 336.622 235.942L331.118 230.137ZM329.472 240.054C331.005 242.924 332.463 245.85 333.938 248.829C335.405 251.792 336.894 254.818 338.453 257.809L345.547 254.111C344.036 251.212 342.59 248.273 341.107 245.279C339.632 242.3 338.125 239.276 336.528 236.285L329.472 240.054ZM338.456 257.814C339.074 258.996 339.095 259.683 339.028 260.08C338.958 260.493 338.695 261.156 337.728 262.106L343.332 267.814C345.105 266.074 346.482 263.967 346.915 261.418C347.35 258.852 346.736 256.384 345.544 254.106L338.456 257.814ZM337.73 262.103C333.009 266.731 328.785 271.15 324.168 275.556L329.692 281.344C334.275 276.97 338.931 272.129 343.33 267.816L337.73 262.103ZM324.537 275.245C322.997 276.394 321.914 278.051 321.479 279.922L329.271 281.735C329.278 281.703 329.297 281.675 329.323 281.655L324.537 275.245ZM321.479 279.922C321.044 281.793 321.284 283.758 322.158 285.469L329.282 281.831C329.267 281.801 329.263 281.768 329.271 281.735L321.479 279.922ZM321.994 285.106C323.428 288.775 324.406 292.201 325.836 296.275L333.384 293.625C332.174 290.179 330.912 285.945 329.446 282.194L321.994 285.106ZM325.873 296.377C326.141 297.078 326.216 297.839 326.09 298.58L333.976 299.923C334.342 297.772 334.125 295.562 333.347 293.523L325.873 296.377ZM326.09 298.58C325.963 299.32 325.641 300.013 325.156 300.587L331.264 305.753C332.673 304.087 333.61 302.074 333.976 299.923L326.09 298.58ZM325.026 300.748C319.031 308.63 313.474 316.243 307.517 324.004L313.863 328.875C319.726 321.237 325.629 313.17 331.394 305.592L325.026 300.748ZM307.513 324.01C306.185 325.746 305.424 325.854 305.282 325.864C305.096 325.876 304.269 325.828 302.622 324.288L297.158 330.132C299.512 332.332 302.424 334.069 305.808 333.846C309.236 333.621 311.875 331.474 313.867 328.87L307.513 324.01ZM302.624 324.29C301.436 323.177 300.274 322.007 299.128 320.793L293.312 326.286C294.546 327.593 295.825 328.883 297.156 330.13L302.624 324.29ZM299.128 320.793C298.011 319.611 296.973 318.395 295.691 316.918L289.649 322.162C290.867 323.565 292.049 324.949 293.312 326.286L299.128 320.793ZM290.365 316.271C289.283 317.034 288.274 317.898 287.354 318.85L293.106 324.41C293.677 323.819 294.303 323.283 294.975 322.809L290.365 316.271ZM287.077 319.169C282.568 324.946 276.148 328.262 268.701 331.344L271.759 338.736C279.392 335.578 287.512 331.614 293.383 324.091L287.077 319.169ZM268.965 331.245C267.358 331.781 265.63 331.84 263.99 331.417L261.99 339.163C265.124 339.972 268.424 339.858 271.495 338.835L268.965 331.245ZM263.871 331.388C259.989 330.512 256.491 329.072 251.642 327.488L249.158 335.092C253.309 336.448 257.751 338.208 262.109 339.192L263.871 331.388ZM246.826 329.494C244.079 334.96 240.783 340.815 238.269 346.724L245.631 349.856C248.017 344.245 250.981 339.04 253.974 333.086L246.826 329.494ZM238.215 346.859C237.647 348.341 236.718 349.659 235.513 350.693L240.723 356.764C242.936 354.865 244.641 352.445 245.685 349.721L238.215 346.859ZM235.513 350.693C234.308 351.727 232.865 352.444 231.313 352.781L233.007 360.599C235.858 359.981 238.509 358.664 240.723 356.764L235.513 350.693ZM231.137 352.823C228.674 353.475 226.287 354.28 224.014 355.073C221.7 355.88 219.547 356.657 217.351 357.341L219.729 364.979C222.093 364.243 224.445 363.395 226.648 362.627C228.893 361.844 231.036 361.125 233.183 360.557L231.137 352.823ZM217.355 357.34C215.234 357.997 214.512 357.681 214.352 357.59C214.168 357.485 213.506 356.984 212.931 354.774L205.189 356.786C205.994 359.886 207.477 362.88 210.391 364.54C213.328 366.214 216.656 365.932 219.725 364.98L217.355 357.34ZM212.931 354.774C211.524 349.358 210.103 344.32 209.073 339.14L201.227 340.7C202.317 346.18 203.836 351.582 205.189 356.786L212.931 354.774ZM209.072 339.135C208.658 337.066 207.768 335.035 205.759 333.701C204.046 332.564 202.031 332.338 200.714 332.201L199.886 340.158C200.545 340.227 200.943 340.288 201.213 340.353C201.466 340.414 201.451 340.444 201.334 340.366C201.18 340.264 201.08 340.133 201.049 340.079C201.043 340.067 201.131 340.222 201.228 340.704L209.072 339.135ZM200.716 332.202C184.25 330.48 169.054 336.561 155.249 340.321L157.351 348.039C172.406 343.939 185.37 338.64 199.884 340.158L200.716 332.202ZM155.246 340.321C152.767 340.998 150.308 341.722 147.891 342.432C145.463 343.147 143.077 343.848 140.686 344.501L142.794 352.219C145.273 351.542 147.732 350.818 150.149 350.107C152.577 349.393 154.963 348.692 157.354 348.039L155.246 340.321ZM140.686 344.501C138.248 345.167 137.544 344.872 137.406 344.799C137.265 344.724 136.619 344.296 135.795 341.885L128.225 344.475C129.231 347.414 130.74 350.316 133.651 351.863C136.566 353.412 139.812 353.033 142.794 352.219L140.686 344.501ZM135.795 341.885C134.05 336.784 132.215 330.913 130.355 325.606L122.805 328.254C124.725 333.727 126.31 338.876 128.225 344.475L135.795 341.885ZM130.356 325.609C129.907 324.327 129.978 323.625 130.096 323.247C130.21 322.886 130.527 322.305 131.599 321.571L127.081 314.969C124.953 316.425 123.25 318.344 122.464 320.851C121.682 323.34 121.973 325.873 122.804 328.25L130.356 325.609ZM131.592 321.576C137.68 317.428 143.999 313.251 150.079 308.81L145.361 302.35C139.421 306.688 133.301 310.732 127.088 314.964L131.592 321.576ZM150.081 308.809C154.234 305.772 158.871 304.072 163.959 302.888C169.299 301.646 174.288 301.115 180.185 300.012L178.715 292.148C173.702 293.085 167.571 293.834 162.146 295.097C156.469 296.418 150.696 298.448 145.359 302.351L150.081 308.809ZM180.192 300.011C185.482 299.012 190.81 298.096 196.174 297.263L194.946 289.357C189.497 290.204 184.084 291.135 178.708 292.149L180.192 300.011Z"
    fill="#939FAA"
  /><path
    d="M285.14 105.98C279.77 108.69 278.83 111.06 281 116.54L285.14 105.98ZM285.14 105.98C287.2 104.937 289.269 103.911 291.339 102.885C295.579 100.783 299.82 98.6812 303.98 96.43C305.744 95.371 307.234 93.9116 308.33 92.1699L285.14 105.98ZM308.19 146.37H308.177L289.63 137.99L293.338 136.491C293.338 136.49 293.338 136.49 293.338 136.49C290.454 129.357 287.58 122.213 284.716 115.06C283.698 112.488 283.923 111.791 283.965 111.684C284.021 111.542 284.383 110.842 286.942 109.551L286.947 109.549C288.941 108.539 290.977 107.53 293.03 106.512C297.307 104.391 301.662 102.232 305.884 99.9478L305.962 99.9054L306.039 99.8596C308.327 98.4861 310.262 96.5967 311.689 94.3424C320.53 80.9902 324.312 66.2408 322.299 50.1368C322.207 49.3927 322.2 48.5708 322.225 47.5458C322.23 47.328 322.238 47.0923 322.245 46.8439C322.271 46.025 322.3 45.0675 322.279 44.1556L322.278 44.1127L322.276 44.0699C322.201 42.4071 322.324 41.4396 322.559 40.8663C322.654 40.6358 322.755 40.5036 322.865 40.4032C322.978 40.2993 323.22 40.1218 323.73 39.9561C324.17 39.8145 324.414 39.8227 324.53 39.8371C324.647 39.8517 324.801 39.894 325.032 40.0342C325.618 40.39 326.291 41.0949 327.366 42.4453C330.094 45.8963 332.816 49.2985 335.53 52.6902C339.421 57.5525 343.295 62.3931 347.142 67.3246C348.182 68.8181 349.586 70.022 351.223 70.8213C352.877 71.629 354.711 71.9957 356.547 71.8867C360.964 71.7756 365.198 71.7906 369.496 71.8059C372.909 71.818 376.361 71.8302 379.976 71.7796L379.984 71.7794L379.992 71.7793C381.47 71.7528 382.306 72.0096 382.835 72.3194C383.338 72.6134 383.932 73.17 384.535 74.4427L384.537 74.4458C386.78 79.1699 389.17 83.9082 391.53 88.5877C392.954 91.4107 394.368 94.2124 395.731 96.9765C396.897 99.3488 396.685 100.062 396.655 100.15C396.609 100.282 396.271 101.016 393.828 102.274L393.721 102.329L393.618 102.391C391.663 103.551 389.621 104.556 387.509 105.397C374.935 109.536 366.413 117.909 362.268 130.575C361.421 132.676 360.41 134.707 359.242 136.648L359.172 136.766L359.109 136.888C357.799 139.448 356.984 139.796 356.834 139.841C356.719 139.876 355.905 140.058 353.503 138.631L353.498 138.628C351.937 137.704 350.379 136.784 348.824 135.867C342.132 131.92 335.508 128.012 329.007 123.885C327.267 122.776 325.253 122.032 323.086 122.168C320.839 122.309 318.967 123.365 317.551 124.864L317.543 124.873L317.536 124.881C316.702 125.774 316.322 126.794 316.134 127.541C315.939 128.315 315.881 129.077 315.878 129.725C315.87 131.014 316.078 132.314 316.329 133.32L316.331 133.326C316.799 135.188 317.415 136.979 317.975 138.596L318.017 138.72C318.577 140.338 319.077 141.784 319.462 143.239C319.844 144.7 319.538 145.33 319.406 145.522C319.279 145.705 318.821 146.199 317.354 146.337C315.432 146.509 313.6 146.467 311.533 146.419C310.492 146.395 309.392 146.37 308.19 146.37Z"
    stroke="#939FAA"
    stroke-width="8"
  /><path
    d="M176.916 354.05L177.197 354.09H177.48H195.14C196.466 354.09 197.011 354.398 197.244 354.588C197.475 354.778 197.893 355.259 198.156 356.589L198.158 356.595C198.802 359.815 199.455 363.02 200.107 366.22C201.493 373.018 202.873 379.791 204.148 386.624L204.15 386.634L204.152 386.645C204.488 388.392 204.188 389.007 204.079 389.178C203.964 389.357 203.52 389.889 201.795 390.336C193.978 392.33 186.139 394.267 178.276 396.148C176.418 396.586 175.886 396.306 175.8 396.257C175.672 396.184 175.115 395.793 174.427 393.866L174.427 393.865C174.361 393.679 174.294 393.494 174.229 393.31C173.035 389.971 171.903 386.804 171.031 383.577L171.029 383.569C170.601 381.998 169.83 380.132 168.113 378.811C166.346 377.453 164.288 377.209 162.481 377.317C159.042 377.503 155.596 377.503 152.157 377.316L152.139 377.315L152.122 377.314C150.371 377.235 149.863 376.806 149.73 376.667C149.582 376.513 149.168 375.95 149.129 374.154L149.129 374.151C149.091 372.429 149.105 370.692 149.122 368.89C149.123 368.8 149.124 368.709 149.125 368.618C149.142 366.92 149.159 365.162 149.129 363.403L149.129 363.377L149.128 363.351C149.102 362.462 149.297 362.003 149.544 361.641C149.867 361.169 150.467 360.599 151.664 359.808L151.674 359.802L151.683 359.796C159.099 354.839 168.084 352.793 176.916 354.05Z"
    stroke="#939FAA"
    stroke-width="8"
  /><path
    fill-rule="evenodd"
    clip-rule="evenodd"
    d="M251 272C265.912 272 278 259.912 278 245C278 230.088 265.912 218 251 218C236.088 218 224 230.088 224 245C224 259.912 236.088 272 251 272ZM251 289C275.301 289 295 269.301 295 245C295 220.699 275.301 201 251 201C226.699 201 207 220.699 207 245C207 269.301 226.699 289 251 289Z"
    fill="url(#paint0_linear_1757_61920)"
  /><defs><linearGradient
      id="paint0_linear_1757_61920"
      x1="207"
      y1="289"
      x2="303.145"
      y2="278.955"
      gradientUnits="userSpaceOnUse"
    ><stop stop-color="#E41B1B" /><stop
        offset="1"
        stop-color="#BD0000"
      /></linearGradient></defs></svg>
